<svg width="11" height="11" viewBox="0 0 11 11" fill="none" xmlns="http://www.w3.org/2000/svg">
<g clip-path="url(#clip0)">
<path d="M6.50779 5.49075L10.791 9.77406C11.0697 10.0527 11.0697 10.5032 10.791 10.7818C10.5124 11.0604 10.0619 11.0604 9.78328 10.7818L5.49995 6.49845L1.21676 10.7818C0.938017 11.0604 0.48767 11.0604 0.209057 10.7818C-0.0696857 10.5032 -0.0696857 10.0527 0.209057 9.77406L4.49225 5.49075L0.209057 1.20744C-0.0696857 0.928828 -0.0696857 0.478353 0.209057 0.19974C0.347907 0.0607605 0.530473 -0.00905514 0.712909 -0.00905514C0.895344 -0.00905514 1.07778 0.0607605 1.21676 0.19974L5.49995 4.48305L9.78328 0.19974C9.92226 0.0607605 10.1047 -0.00905514 10.2871 -0.00905514C10.4696 -0.00905514 10.652 0.0607605 10.791 0.19974C11.0697 0.478353 11.0697 0.928828 10.791 1.20744L6.50779 5.49075Z" fill="black" fill-opacity="0.3"/>
</g>
<defs>
<clipPath id="clip0">
<rect width="11" height="11" fill="white" transform="matrix(1 0 0 -1 0 11)"/>
</clipPath>
</defs>
</svg>
