<svg width="16" height="16" viewBox="0 0 16 16" fill="none" xmlns="http://www.w3.org/2000/svg">
<path d="M0.468054 12.2191H12.7186C12.8285 12.2191 12.9347 12.1806 13.0189 12.1106C13.1366 12.012 15.8206 9.70303 15.9843 4.71875H2.82747C2.66443 9.24314 0.19251 11.3697 0.166821 11.3909C0.0162208 11.5182 -0.039188 11.7261 0.0285651 11.911C0.0958494 12.0955 0.271201 12.2191 0.468054 12.2191Z" fill="#797697"/>
<path d="M15.5318 1.90629H13.188V1.43752C13.188 1.17501 12.9817 0.96875 12.7192 0.96875C12.4567 0.96875 12.2504 1.17501 12.2504 1.43752V1.90629H9.87532V1.43752C9.87532 1.17501 9.66906 0.96875 9.40655 0.96875C9.14403 0.96875 8.93777 1.17501 8.93777 1.43752V1.90629H6.59392V1.43752C6.59392 1.17501 6.38766 0.96875 6.12515 0.96875C5.86264 0.96875 5.65638 1.17501 5.65638 1.43752V1.90629H3.31252C3.05001 1.90629 2.84375 2.11255 2.84375 2.37506V3.78138H16.0006V2.37506C16.0006 2.11255 15.7943 1.90629 15.5318 1.90629Z" fill="#797697"/>
<path d="M13.6215 12.8293C13.3669 13.0412 13.0474 13.1566 12.7192 13.1566H2.84375V14.5629C2.84375 14.822 3.05342 15.0317 3.31252 15.0317H15.5318C15.7909 15.0317 16.0006 14.822 16.0006 14.5629V9.30811C15.0968 11.5254 13.8356 12.65 13.6215 12.8293Z" fill="#797697"/>
</svg>
