<svg width="19" height="18" viewBox="0 0 19 18" fill="none" xmlns="http://www.w3.org/2000/svg">
<path d="M0.577839 18C0.428305 18 0.281706 17.9413 0.173399 17.8322C0.0314112 17.6902 -0.0258869 17.4841 0.0230261 17.2895L1.09757 12.9765C1.12273 12.8758 1.17472 12.7834 1.24795 12.7102L13.3444 0.613684C14.1625 -0.204561 15.4943 -0.204561 16.3126 0.613684L17.3918 1.69284C18.21 2.51109 18.21 3.84292 17.3918 4.66103L5.29543 16.7575C5.22206 16.8307 5.12968 16.8834 5.02906 16.9079L0.716053 17.9824C0.670215 17.9947 0.624377 18 0.577839 18ZM2.16919 13.407L1.36324 16.6415L4.59779 15.8356L16.5827 3.85131C16.9545 3.47957 16.9545 2.8736 16.5827 2.50187L15.5036 1.4227C15.1311 1.05027 14.525 1.05097 14.1541 1.4227L2.16919 13.407ZM4.89085 16.3531H4.89853H4.89085Z" fill="#393185"/>
<path d="M15.1252 6.69064C14.9786 6.69064 14.832 6.63488 14.7206 6.5228L11.4823 3.28518C11.2585 3.06144 11.2585 2.69892 11.4823 2.47532C11.7059 2.25172 12.0684 2.25172 12.292 2.47532L15.5304 5.71378C15.754 5.93738 15.754 6.2999 15.5304 6.5235C15.4174 6.63488 15.2709 6.69064 15.1252 6.69064Z" fill="#393185"/>
<path d="M4.88873 16.9259C4.74213 16.9259 4.59567 16.8701 4.48429 16.7579L1.24583 13.5196C1.02222 13.2958 1.02222 12.9333 1.24583 12.7097C1.46943 12.4861 1.83194 12.4861 2.05569 12.7097L5.29401 15.9482C5.51761 16.1718 5.51761 16.5343 5.29401 16.7579C5.18179 16.8701 5.03533 16.9259 4.88873 16.9259Z" fill="#393185"/>
</svg>
