<svg width="14" height="14" viewBox="0 0 14 14" fill="none" xmlns="http://www.w3.org/2000/svg">
<path d="M7.00108 0C4.17884 0 1.88281 2.33729 1.88281 5.21023C1.88281 6.81722 2.69558 8.76774 4.29861 11.0076C5.47171 12.6468 6.6277 13.8158 6.67635 13.8648C6.76576 13.9549 6.88339 14 7.00116 14C7.11551 14 7.22995 13.9574 7.31865 13.8719C7.36741 13.825 8.52632 12.7033 9.70164 11.0867C11.306 8.88004 12.1194 6.90292 12.1194 5.2102C12.1193 2.33729 9.82326 0 7.00108 0ZM7.00731 12.883C5.97629 11.7644 2.79828 8.08302 2.79828 5.21023C2.79828 2.84209 4.68364 0.915443 7.00108 0.915443C9.31852 0.915443 11.2039 2.84206 11.2039 5.21023C11.2039 8.23792 8.04285 11.7981 7.00731 12.883Z" fill="#393185"/>
<path d="M7.0003 2.45508C5.62053 2.45508 4.49805 3.5776 4.49805 4.95734C4.49805 6.33708 5.62056 7.4596 7.0003 7.4596C8.38004 7.4596 9.50255 6.33708 9.50255 4.95734C9.50255 3.5776 8.38001 2.45508 7.0003 2.45508ZM7.0003 6.54415C6.12533 6.54415 5.41349 5.83231 5.41349 4.95734C5.41349 4.08236 6.12533 3.37052 7.0003 3.37052C7.87527 3.37052 8.58711 4.08236 8.58711 4.95734C8.58711 5.83231 7.87525 6.54415 7.0003 6.54415Z" fill="#393185"/>
</svg>
