<svg width="12" height="13" viewBox="0 0 12 13" fill="none" xmlns="http://www.w3.org/2000/svg">
<g clip-path="url(#clip0)">
<path d="M6.00037 0.0751953C3.58131 0.0751953 1.61328 2.15372 1.61328 4.70857C1.61328 6.13765 2.30994 7.87222 3.68397 9.86408C4.68948 11.3218 5.68033 12.3614 5.72202 12.405C5.79867 12.485 5.89949 12.5252 6.00044 12.5252C6.09846 12.5252 6.19654 12.4873 6.27257 12.4113C6.31436 12.3696 7.30772 11.372 8.31513 9.93445C9.69026 7.97208 10.3875 6.21386 10.3875 4.70855C10.3875 2.15372 8.41938 0.0751953 6.00037 0.0751953ZM6.00571 11.5318C5.12198 10.5371 2.39797 7.26331 2.39797 4.70857C2.39797 2.60262 4.01399 0.889286 6.00037 0.889286C7.98675 0.889286 9.60277 2.6026 9.60277 4.70857C9.60277 7.40106 6.89332 10.5671 6.00571 11.5318Z" fill="#393185"/>
<path d="M6.00026 2.25879C4.8176 2.25879 3.85547 3.25703 3.85547 4.48401C3.85547 5.711 4.81762 6.70923 6.00026 6.70923C7.18289 6.70923 8.14505 5.711 8.14505 4.48401C8.14505 3.25703 7.18287 2.25879 6.00026 2.25879ZM6.00026 5.89514C5.25028 5.89514 4.64013 5.26211 4.64013 4.48401C4.64013 3.70591 5.25028 3.07288 6.00026 3.07288C6.75023 3.07288 7.36038 3.70591 7.36038 4.48401C7.36038 5.26211 6.75021 5.89514 6.00026 5.89514Z" fill="#393185"/>
</g>
<defs>
<clipPath id="clip0">
<rect width="12" height="12.45" fill="white" transform="translate(0 0.0751953)"/>
</clipPath>
</defs>
</svg>
