<svg width="10" height="10" viewBox="0 0 10 10" fill="none" xmlns="http://www.w3.org/2000/svg">
<path d="M9.1976 6.56385C8.58536 6.56385 7.98422 6.4681 7.41456 6.27984C7.13055 6.18299 6.80719 6.25815 6.6219 6.44695L5.4975 7.29576C4.19352 6.59969 3.39029 5.79672 2.70372 4.50253L3.52755 3.40742C3.74159 3.19367 3.81836 2.88143 3.72638 2.58846C3.53732 2.01581 3.44128 1.41495 3.44128 0.802448C3.4413 0.359974 3.08133 0 2.63888 0H0.802396C0.359974 0 0 0.359974 0 0.802396C0 5.87404 4.12599 10 9.1976 10C9.64005 10 10 9.64003 10 9.19758V7.36625C10 6.92383 9.64003 6.56385 9.1976 6.56385ZM9.44445 9.1976C9.44445 9.33378 9.33378 9.44445 9.1976 9.44445C4.43224 9.44445 0.555573 5.56776 0.555573 0.802422C0.555573 0.66625 0.66625 0.555573 0.802422 0.555573H2.63891C2.77508 0.555573 2.88576 0.66625 2.88576 0.802422C2.88576 1.47435 2.99128 2.1338 3.19771 2.75854C3.22646 2.85078 3.20313 2.94625 3.10982 3.04339L2.15495 4.30799C2.09094 4.39289 2.08089 4.50656 2.12891 4.60122C2.90826 6.13307 3.85526 7.08008 5.39794 7.87055C5.4918 7.91964 5.60682 7.90935 5.69201 7.84505L6.98568 6.86497C7.05104 6.79961 7.14898 6.77628 7.23742 6.80638C7.86648 7.01417 8.52594 7.11943 9.1976 7.11943C9.33378 7.11943 9.44445 7.2301 9.44445 7.36628V9.1976Z" fill="#393185"/>
</svg>
